<svg width="1348" height="374" viewBox="0 0 1348 374" fill="none" xmlns="http://www.w3.org/2000/svg">
<path d="M1218.22 45H1333L1326.91 51L1333 57H1218.22L1213 51L1218.22 45Z" fill="url(#paint0_linear_0_1)"/>
<path d="M1201.22 64H1316L1309.91 70L1316 76H1201.22L1196 70L1201.22 64Z" fill="#03FF00"/>
<path d="M1218.22 45H1333L1326.91 51L1333 57H1275.61H1218.22L1213 51L1218.22 45Z" fill="url(#paint1_linear_0_1)"/>
<path d="M1185.22 83H1300L1293.91 89L1300 95H1185.22L1180 89L1185.22 83Z" fill="url(#paint2_linear_0_1)"/>
<path d="M1168.09 102H1283L1276.91 108L1283 114H1168.09L1162 108L1168.09 102Z" fill="url(#paint3_linear_0_1)"/>
<path d="M1153.04 121H1267L1260.09 127L1267 133H1153.04L1147 127L1153.04 121Z" fill="url(#paint4_linear_0_1)"/>
<path d="M1139 140H1253L1246.95 146L1253 152H1139V140Z" fill="url(#paint5_linear_0_1)"/>
<path d="M1122 159H1236L1229.95 165L1236 171H1122V159Z" fill="url(#paint6_linear_0_1)"/>
<path d="M1112 178H1226L1219.95 184L1226 190H1112V178Z" fill="url(#paint7_linear_0_1)"/>
<path d="M1070 175H1186L1195 183.636L1186 194H1070L1074.81 183.636L1070 175Z" fill="#03FF00"/>
<path d="M1139 197H1253L1246.95 203.5L1253 210H1139V197Z" fill="url(#paint8_linear_0_1)"/>
<path d="M1153 216H1267L1260.09 222.5L1267 229H1153V216Z" fill="url(#paint9_linear_0_1)"/>
<path d="M1168.09 236H1283L1276.04 242L1283 248H1168.09L1162 242L1168.09 236Z" fill="url(#paint10_linear_0_1)"/>
<path d="M1184.04 255H1298L1291.96 261L1298 267H1184.04L1178 261L1184.04 255Z" fill="url(#paint11_linear_0_1)"/>
<path d="M1200.97 274H1316L1309.03 280L1316 286H1200.97L1194 280L1200.97 274Z" fill="url(#paint12_linear_0_1)"/>
<path d="M1216.91 293H1331L1323.22 299L1331 305H1216.91L1210 299L1216.91 293Z" fill="url(#paint13_linear_0_1)"/>
<path d="M1233.66 312H1348L1341.07 318L1348 324H1233.66L1225 318L1233.66 312Z" fill="url(#paint14_linear_0_1)"/>
<path d="M186.839 0H774.123C877.287 0 961 83.784 961 186.999C961 290.216 877.287 374 774.123 374H186.876C83.7514 374 4.83126e-05 290.216 4.83126e-05 186.999C-0.0734299 83.784 83.6769 0 186.839 0Z" fill="#03FF00"/>
<path d="M424.389 38H186.684C104.691 38 38 104.816 38 187.019C38 269.186 104.691 336 186.684 336C189.958 336 270.922 335.891 274.197 335.669H414.385C417.695 335.891 421.041 336 424.316 336C506.31 336 573 269.186 573 187.019C573 104.816 506.31 38 424.316 38H424.389Z" fill="white"/>
<path d="M680.834 80.3559L745.677 178.028C747.471 180.744 751.678 179.458 751.678 176.194V87.1078C751.678 80.4303 757.058 75.0727 763.682 75.0727H813.96C820.62 75.0727 826 80.5029 826 87.1078V286.965C826 293.642 820.584 299 813.96 299H758.083C754.057 299 750.324 296.981 748.092 293.642L683.323 196.043C681.529 193.329 677.322 194.613 677.322 197.879V286.965C677.322 293.642 671.942 299 665.318 299H615.04C608.38 299 603 293.606 603 286.965V87.0715C603 80.3559 608.416 75 615.04 75H670.845C674.869 75 678.602 77.0171 680.834 80.3559Z" fill="#312A25"/>
<path d="M424.5 68C359.032 68 306 121.249 306 187.001C306 252.714 359.032 306 424.5 306C489.93 306 543 252.714 543 187.001C543 121.249 489.93 68 424.5 68Z" fill="#312A25"/>
<path d="M1086.36 45H972L1069.9 175H1186L1086.36 45Z" fill="#12FF0F"/>
<path d="M1086.36 324H972L1069.9 194H1186L1086.36 324Z" fill="#12FF0F"/>
<defs>
<linearGradient id="paint0_linear_0_1" x1="1185.17" y1="189" x2="1413.87" y2="183.707" gradientUnits="userSpaceOnUse">
<stop offset="0.027405" stop-color="#03FF00"/>
<stop offset="1" stop-color="white" stop-opacity="0"/>
</linearGradient>
<linearGradient id="paint1_linear_0_1" x1="1185.17" y1="189" x2="1413.87" y2="183.707" gradientUnits="userSpaceOnUse">
<stop offset="0.027405" stop-color="#03FF00"/>
<stop offset="1" stop-color="white" stop-opacity="0"/>
</linearGradient>
<linearGradient id="paint2_linear_0_1" x1="1185.22" y1="189.286" x2="1413.91" y2="183.993" gradientUnits="userSpaceOnUse">
<stop offset="0.027405" stop-color="#03FF00"/>
<stop offset="1" stop-color="white" stop-opacity="0"/>
</linearGradient>
<linearGradient id="paint3_linear_0_1" x1="1185.5" y1="189.429" x2="1414.44" y2="184.124" gradientUnits="userSpaceOnUse">
<stop offset="0.25" stop-color="#03FF00"/>
<stop offset="1" stop-color="white" stop-opacity="0"/>
</linearGradient>
<linearGradient id="paint4_linear_0_1" x1="1185.85" y1="189.571" x2="1412.9" y2="184.354" gradientUnits="userSpaceOnUse">
<stop offset="0.027405" stop-color="#03FF00"/>
<stop offset="1" stop-color="white" stop-opacity="0"/>
</linearGradient>
<linearGradient id="paint5_linear_0_1" x1="1185.5" y1="146" x2="1326.5" y2="145.951" gradientUnits="userSpaceOnUse">
<stop offset="0.027405" stop-color="#03FF00"/>
<stop offset="1" stop-color="white" stop-opacity="0"/>
</linearGradient>
<linearGradient id="paint6_linear_0_1" x1="1176.5" y1="159" x2="1265" y2="158.97" gradientUnits="userSpaceOnUse">
<stop offset="0.25" stop-color="#03FF00"/>
<stop offset="1" stop-color="white" stop-opacity="0"/>
</linearGradient>
<linearGradient id="paint7_linear_0_1" x1="1176" y1="184" x2="1262.5" y2="177.97" gradientUnits="userSpaceOnUse">
<stop offset="0.25" stop-color="#03FF00"/>
<stop offset="1" stop-color="white" stop-opacity="0"/>
</linearGradient>
<linearGradient id="paint8_linear_0_1" x1="1185.64" y1="189.571" x2="1321.5" y2="189.95" gradientUnits="userSpaceOnUse">
<stop offset="0.027405" stop-color="#03FF00"/>
<stop offset="1" stop-color="white" stop-opacity="0"/>
</linearGradient>
<linearGradient id="paint9_linear_0_1" x1="1185.82" y1="188.143" x2="1412.97" y2="183.323" gradientUnits="userSpaceOnUse">
<stop offset="0.027405" stop-color="#03FF00"/>
<stop offset="1" stop-color="white" stop-opacity="0"/>
</linearGradient>
<linearGradient id="paint10_linear_0_1" x1="1185.5" y1="191.429" x2="1414.44" y2="186.124" gradientUnits="userSpaceOnUse">
<stop offset="0.027405" stop-color="#03FF00"/>
<stop offset="1" stop-color="white" stop-opacity="0"/>
</linearGradient>
<linearGradient id="paint11_linear_0_1" x1="1185.77" y1="191.571" x2="1412.82" y2="186.354" gradientUnits="userSpaceOnUse">
<stop offset="0.25" stop-color="#03FF00"/>
<stop offset="1" stop-color="white" stop-opacity="0"/>
</linearGradient>
<linearGradient id="paint12_linear_0_1" x1="1185.29" y1="191.714" x2="1414.47" y2="186.399" gradientUnits="userSpaceOnUse">
<stop offset="0.027405" stop-color="#03FF00"/>
<stop offset="1" stop-color="white" stop-opacity="0"/>
</linearGradient>
<linearGradient id="paint13_linear_0_1" x1="1185.8" y1="191.857" x2="1413.11" y2="186.628" gradientUnits="userSpaceOnUse">
<stop offset="0.25" stop-color="#03FF00"/>
<stop offset="1" stop-color="white" stop-opacity="0"/>
</linearGradient>
<linearGradient id="paint14_linear_0_1" x1="1185.15" y1="192" x2="1412.96" y2="186.748" gradientUnits="userSpaceOnUse">
<stop offset="0.027405" stop-color="#03FF00"/>
<stop offset="1" stop-color="white" stop-opacity="0"/>
</linearGradient>
</defs>
</svg>
