<svg width="123" height="89" viewBox="0 0 123 89" fill="none" xmlns="http://www.w3.org/2000/svg">
<path d="M26.64 66.576C11.952 66.576 1.8 55.704 1.8 41.808C1.8 27.912 11.952 17.04 26.64 17.04C41.328 17.04 51.48 27.912 51.48 41.808C51.48 55.704 41.328 66.576 26.64 66.576ZM26.64 53.976C34.128 53.976 37.8 48.792 37.8 41.808C37.8 34.824 34.128 29.64 26.64 29.64C19.152 29.64 15.48 34.824 15.48 41.808C15.48 48.792 19.152 53.976 26.64 53.976ZM65.3963 66H52.4363V17.76H65.3963L79.5803 39.504L83.6123 47.064L82.6763 32.88V17.76H95.6363V66H83.1083L68.4203 44.328L64.2443 36.912L65.3963 52.536V66Z" fill="#F2F2F2"/>
<path d="M106.02 40H97.22L104.568 29.308L97.396 18.264H106.196L107.736 20.816L110.024 25.744L111.916 21.3L113.5 18.264H122.3L115.128 29.308L122.476 40H113.632L111.52 36.48L109.584 32.52L107.912 36.348L106.02 40Z" fill="#01FF33"/>
</svg>
