<svg xmlns="http://www.w3.org/2000/svg" xmlns:xlink="http://www.w3.org/1999/xlink" width="153" height="30" viewBox="0 0 204 40" version="1.1">
<style>
  #surface5 path,
  #surface1 > path:nth-of-type(2),
  #surface1 > path:nth-of-type(5) { fill: #fff !important; }
</style>
<defs>
<filter id="alpha" filterUnits="objectBoundingBox" x="0%" y="0%" width="100%" height="100%">
  <feColorMatrix type="matrix" in="SourceGraphic" values="0 0 0 0 1 0 0 0 0 1 0 0 0 0 1 0 0 0 1 0"/>
</filter>
<mask id="mask0">
  <g filter="url(#alpha)">
<rect x="0" y="0" width="204" height="40" style="fill:rgb(0%,0%,0%);fill-opacity:0.7;stroke:none;"/>
  </g>
</mask>
<clipPath id="clip1">
  <rect x="0" y="0" width="204" height="40"/>
</clipPath>
<g id="surface5" clip-path="url(#clip1)">
<path style=" stroke:none;fill-rule:nonzero;fill:rgb(0%,0%,0%);fill-opacity:1;" d="M 114.109375 29.875 L 115.777344 31.761719 C 115.777344 31.761719 115.875 31.871094 115.875 31.871094 C 116.59375 32.761719 115.757812 34.847656 113.988281 36.703125 C 112.171875 38.59375 110.097656 39.597656 109.140625 38.773438 L 107.125 37.15625 C 107.511719 37.402344 108.1875 37.28125 108.992188 36.867188 C 109.011719 36.863281 109.023438 36.851562 109.039062 36.84375 C 109.054688 36.84375 109.058594 36.832031 109.070312 36.824219 C 109.914062 36.382812 110.886719 35.628906 111.8125 34.664062 C 112.742188 33.691406 113.453125 32.683594 113.859375 31.816406 C 113.859375 31.804688 113.871094 31.792969 113.875 31.78125 C 113.882812 31.761719 113.886719 31.75 113.902344 31.730469 C 114.269531 30.921875 114.367188 30.242188 114.109375 29.867188 "/>
<path style=" stroke:none;fill-rule:nonzero;fill:rgb(0%,0%,0%);fill-opacity:1;" d="M 114.34375 37.378906 C 113.875 37.863281 113.746094 38.496094 114.054688 38.785156 C 114.355469 39.074219 114.980469 38.914062 115.441406 38.429688 C 115.90625 37.945312 116.035156 37.3125 115.734375 37.023438 C 115.433594 36.734375 114.808594 36.894531 114.34375 37.378906 Z M 114.34375 37.378906 "/>
<path style=" stroke:none;fill-rule:nonzero;fill:rgb(0%,0%,0%);fill-opacity:1;" d="M 113.605469 29.882812 C 112.914062 29.21875 110.84375 30.285156 108.949219 32.265625 C 108.808594 32.414062 108.671875 32.578125 108.542969 32.738281 L 110.25 34.316406 C 110.382812 34.160156 110.496094 34.03125 110.648438 33.871094 C 111.5625 32.910156 112.519531 32.167969 113.390625 31.871094 C 113.820312 30.964844 113.960938 30.226562 113.601562 29.882812 "/>
<path style=" stroke:none;fill-rule:evenodd;fill:rgb(0%,0%,0%);fill-opacity:1;" d="M 123.222656 32.53125 L 124.171875 32.53125 L 124.171875 34.914062 C 124.171875 34.914062 124.171875 35.546875 125.160156 35.546875 C 125.480469 35.546875 126.171875 35.65625 126.171875 34.6875 L 126.171875 32.546875 L 127.117188 32.546875 L 127.117188 34.890625 C 127.117188 34.890625 127.308594 36.179688 125.074219 36.179688 C 124.699219 36.179688 123.226562 36.09375 123.226562 34.96875 C 123.226562 33.84375 123.222656 32.535156 123.222656 32.535156 Z M 123.222656 32.53125 "/>
<path style=" stroke:none;fill-rule:evenodd;fill:rgb(0%,0%,0%);fill-opacity:1;" d="M 136.601562 32.523438 L 136.601562 33.1875 L 134.644531 33.1875 C 134.644531 33.1875 133.570312 33.058594 133.570312 34.171875 C 133.570312 34.34375 133.386719 35.460938 134.503906 35.460938 L 135.628906 35.460938 L 135.628906 34.632812 L 134.40625 34.632812 L 134.40625 33.96875 L 136.621094 33.96875 L 136.621094 36.132812 L 134.671875 36.132812 C 134.671875 36.132812 132.484375 36.476562 132.484375 34.273438 C 132.484375 33.785156 132.773438 32.542969 134.242188 32.542969 C 135.632812 32.542969 136.597656 32.523438 136.597656 32.523438 Z M 136.601562 32.523438 "/>
<path style=" stroke:none;fill-rule:evenodd;fill:rgb(0%,0%,0%);fill-opacity:1;" d="M 130.96875 34.636719 C 131.757812 34.492188 131.855469 33.855469 131.855469 33.605469 C 131.855469 32.40625 130.425781 32.546875 130.425781 32.546875 L 127.96875 32.546875 L 127.96875 36.160156 L 128.914062 36.160156 L 128.914062 34.734375 L 130.03125 34.734375 C 130.03125 34.734375 131.011719 36.144531 131.011719 36.144531 L 132.085938 36.144531 L 130.976562 34.644531 Z M 130.226562 34.074219 L 128.921875 34.074219 L 128.921875 33.179688 L 130.246094 33.179688 C 130.730469 33.179688 130.898438 33.390625 130.898438 33.613281 C 130.898438 34.164062 130.234375 34.074219 130.234375 34.074219 Z M 130.226562 34.074219 "/>
<path style=" stroke:none;fill-rule:evenodd;fill:rgb(0%,0%,0%);fill-opacity:1;" d="M 121.691406 34.316406 C 121.691406 34.316406 122.351562 34.152344 122.34375 33.476562 C 122.335938 32.800781 121.65625 32.546875 121.074219 32.546875 C 120.492188 32.546875 118.363281 32.542969 118.363281 32.542969 L 118.363281 36.136719 L 120.882812 36.136719 C 120.882812 36.136719 122.335938 36.234375 122.335938 35.191406 C 122.335938 34.730469 122.121094 34.492188 121.691406 34.316406 Z M 120.773438 35.453125 L 119.3125 35.453125 L 119.3125 34.667969 C 119.3125 34.667969 120.363281 34.65625 120.785156 34.65625 C 121.207031 34.65625 121.292969 34.863281 121.292969 35.019531 C 121.292969 35.542969 120.773438 35.453125 120.773438 35.453125 Z M 120.75 33.980469 L 119.332031 33.980469 L 119.332031 33.195312 C 119.332031 33.195312 120.429688 33.175781 120.761719 33.175781 C 121.09375 33.175781 121.292969 33.367188 121.292969 33.554688 C 121.292969 34.078125 120.75 33.980469 120.75 33.980469 Z M 120.75 33.980469 "/>
<path style=" stroke:none;fill-rule:evenodd;fill:rgb(0%,0%,0%);fill-opacity:1;" d="M 151.613281 34.402344 C 151.613281 34.402344 152.269531 34.238281 152.257812 33.5625 C 152.25 32.886719 151.574219 32.632812 150.984375 32.632812 C 150.398438 32.632812 148.28125 32.628906 148.28125 32.628906 L 148.28125 36.222656 L 150.796875 36.222656 C 150.796875 36.222656 152.25 36.320312 152.25 35.277344 C 152.25 34.816406 152.035156 34.578125 151.613281 34.402344 Z M 150.691406 35.542969 L 149.230469 35.542969 L 149.230469 34.753906 C 149.230469 34.753906 150.28125 34.75 150.703125 34.75 C 151.128906 34.75 151.21875 34.957031 151.21875 35.109375 C 151.21875 35.632812 150.699219 35.546875 150.699219 35.546875 Z M 150.667969 34.066406 L 149.25 34.066406 L 149.25 33.28125 C 149.25 33.28125 150.347656 33.261719 150.679688 33.261719 C 151.011719 33.261719 151.21875 33.453125 151.21875 33.640625 C 151.21875 34.164062 150.671875 34.066406 150.671875 34.066406 Z M 150.667969 34.066406 "/>
<path style=" stroke:none;fill-rule:evenodd;fill:rgb(0%,0%,0%);fill-opacity:1;" d="M 162.207031 32.597656 L 162.234375 36.230469 L 163.183594 36.230469 L 163.183594 34.464844 L 164.859375 36.199219 L 166.074219 36.199219 L 164.277344 34.34375 L 166.042969 32.597656 L 164.910156 32.597656 L 163.191406 34.289062 L 163.191406 32.597656 Z M 162.207031 32.597656 "/>
<path style=" stroke:none;fill-rule:evenodd;fill:rgb(0%,0%,0%);fill-opacity:1;" d="M 155.183594 32.597656 L 154.171875 32.597656 L 152.304688 36.21875 L 153.335938 36.21875 L 153.730469 35.375 L 155.648438 35.375 L 156.042969 36.199219 L 157.089844 36.199219 Z M 154.046875 34.699219 L 154.671875 33.371094 L 155.300781 34.699219 L 154.042969 34.699219 Z M 154.046875 34.699219 "/>
<path style=" stroke:none;fill-rule:evenodd;fill:rgb(0%,0%,0%);fill-opacity:1;" d="M 157.402344 32.621094 L 158.617188 32.621094 L 160.410156 35.148438 L 160.410156 32.605469 L 161.320312 32.605469 L 161.320312 36.222656 L 160.277344 36.222656 L 158.355469 33.585938 L 158.355469 36.203125 L 157.433594 36.203125 L 157.398438 32.621094 Z M 157.402344 32.621094 "/>
<path style=" stroke:none;fill-rule:evenodd;fill:rgb(0%,0%,0%);fill-opacity:1;" d="M 139.949219 32.523438 L 138.933594 32.523438 L 137.070312 36.144531 L 138.101562 36.144531 L 138.492188 35.300781 L 140.414062 35.300781 L 140.804688 36.125 L 141.855469 36.125 Z M 138.8125 34.625 L 139.445312 33.296875 L 140.070312 34.625 Z M 138.8125 34.625 "/>
<path style=" stroke:none;fill-rule:evenodd;fill:rgb(0%,0%,0%);fill-opacity:1;" d="M 142.101562 32.546875 L 143.320312 32.546875 L 145.113281 35.066406 L 145.113281 32.53125 L 146.023438 32.53125 L 146.023438 36.148438 L 144.984375 36.148438 L 143.066406 33.511719 L 143.066406 36.132812 L 142.144531 36.132812 L 142.105469 32.546875 Z M 142.101562 32.546875 "/>
</g>
</defs>
<g id="surface1">
<path style=" stroke:none;fill-rule:nonzero;fill:rgb(0%,100%,0%);fill-opacity:1;" d="M 19.851562 0.113281 L 82.25 0.113281 C 93.210938 0.113281 102.105469 9.023438 102.105469 20 C 102.105469 30.976562 93.210938 39.886719 82.25 39.886719 L 19.855469 39.886719 C 8.898438 39.886719 0 30.976562 0 20 C -0.0078125 9.023438 8.890625 0.113281 19.851562 0.113281 Z M 19.851562 0.113281 "/>
<path style=" stroke:none;fill-rule:nonzero;fill:rgb(0%,0%,0%);fill-opacity:1;" d="M 45.09375 4.195312 L 19.851562 4.195312 C 11.144531 4.195312 4.0625 11.285156 4.0625 20.007812 C 4.0625 28.726562 11.144531 35.816406 19.851562 35.816406 C 20.199219 35.816406 28.796875 35.804688 29.144531 35.78125 L 44.03125 35.78125 C 44.382812 35.804688 44.738281 35.816406 45.085938 35.816406 C 53.792969 35.816406 60.875 28.726562 60.875 20.007812 C 60.875 11.285156 53.792969 4.195312 45.085938 4.195312 Z M 45.09375 4.195312 "/>
<path style=" stroke:none;fill-rule:nonzero;fill:rgb(0%,0%,0%);fill-opacity:1;" d="M 72.359375 8.648438 L 79.28125 19.046875 C 79.472656 19.335938 79.921875 19.199219 79.921875 18.851562 L 79.921875 9.367188 C 79.921875 8.65625 80.496094 8.085938 81.203125 8.085938 L 86.570312 8.085938 C 87.28125 8.085938 87.855469 8.664062 87.855469 9.367188 L 87.855469 30.644531 C 87.855469 31.355469 87.277344 31.925781 86.570312 31.925781 L 80.605469 31.925781 C 80.175781 31.925781 79.777344 31.710938 79.539062 31.355469 L 72.625 20.964844 C 72.433594 20.675781 71.984375 20.8125 71.984375 21.160156 L 71.984375 30.644531 C 71.984375 31.355469 71.410156 31.925781 70.703125 31.925781 L 65.335938 31.925781 C 64.625 31.925781 64.050781 31.351562 64.050781 30.644531 L 64.050781 9.363281 C 64.050781 8.648438 64.628906 8.078125 65.335938 8.078125 L 71.292969 8.078125 C 71.722656 8.078125 72.121094 8.292969 72.359375 8.648438 Z M 72.359375 8.648438 "/>
<path style=" stroke:none;fill-rule:nonzero;fill:rgb(0%,0%,0%);fill-opacity:1;" d="M 45.09375 7.367188 C 38.121094 7.367188 32.472656 13.023438 32.472656 20.007812 C 32.472656 26.988281 38.121094 32.648438 45.09375 32.648438 C 52.0625 32.648438 57.714844 26.988281 57.714844 20.007812 C 57.714844 13.023438 52.0625 7.367188 45.09375 7.367188 Z M 45.09375 7.367188 "/>
<path style=" stroke:none;fill-rule:nonzero;fill:rgb(0%,0%,0%);fill-opacity:1;" d="M 115.175781 7.734375 L 106.875 7.734375 L 106.875 27.074219 L 114.988281 27.074219 C 121.195312 27.074219 125.441406 23.121094 125.441406 17.402344 C 125.441406 11.679688 121.25 7.726562 115.183594 7.726562 Z M 115.289062 23.152344 L 111.785156 23.152344 L 111.785156 11.660156 L 115.066406 11.660156 C 118.183594 11.660156 120.449219 14.007812 120.449219 17.4375 C 120.449219 20.867188 118.292969 23.160156 115.289062 23.160156 Z M 126.933594 7.734375 L 131.84375 7.734375 L 131.84375 27.074219 L 126.933594 27.074219 Z M 131.902344 3.449219 C 131.902344 4.945312 130.855469 5.996094 129.394531 5.996094 C 127.933594 5.996094 126.882812 4.945312 126.882812 3.449219 C 126.882812 1.957031 127.933594 0.9375 129.394531 0.9375 C 130.855469 0.9375 131.902344 1.988281 131.902344 3.449219 Z M 135.40625 7.710938 L 146.96875 7.710938 L 146.96875 20.804688 C 146.96875 24.921875 144.402344 27.300781 140.292969 27.300781 C 137.5625 27.300781 135.351562 26.167969 133.640625 24.203125 L 135.902344 20.914062 C 137.285156 22.355469 138.832031 23.074219 139.960938 23.074219 C 141.253906 23.074219 142.027344 22.273438 142.027344 20.695312 L 142.027344 11.6875 L 135.40625 11.6875 Z M 148.292969 7.734375 L 153.199219 7.734375 L 153.199219 27.074219 L 148.292969 27.074219 Z M 153.261719 3.449219 C 153.261719 4.945312 152.214844 5.996094 150.753906 5.996094 C 149.292969 5.996094 148.242188 4.945312 148.242188 3.449219 C 148.242188 1.957031 149.292969 0.9375 150.753906 0.9375 C 152.214844 0.9375 153.261719 1.988281 153.261719 3.449219 Z M 171.828125 11.6875 L 166.007812 11.6875 L 166.007812 27.074219 L 161.097656 27.074219 L 161.097656 11.6875 L 155.332031 11.6875 L 155.332031 7.710938 L 171.828125 7.710938 Z M 176.46875 7.734375 L 168.136719 27.074219 L 173.1875 27.074219 L 174.589844 23.507812 L 183.035156 23.507812 L 184.414062 27.074219 L 189.652344 27.074219 L 181.519531 7.734375 Z M 176.027344 19.785156 L 178.84375 12.632812 L 181.605469 19.785156 Z M 204 22.960938 L 204 27.078125 L 190.894531 27.078125 L 190.894531 7.742188 L 195.800781 7.742188 L 195.800781 22.960938 Z M 204 22.960938 "/>
<use xlink:href="#surface5" mask="url(#mask0)"/>
</g>
</svg>
